<svg width="14" height="14" viewBox="0 0 14 14" fill="none" xmlns="http://www.w3.org/2000/svg">
<path d="M14 7C14 10.866 10.866 14 7 14C3.13401 14 0 10.866 0 7C0 3.13401 3.13401 0 7 0C10.866 0 14 3.13401 14 7ZM1.27707 7C1.27707 10.1607 3.83932 12.7229 7 12.7229C10.1607 12.7229 12.7229 10.1607 12.7229 7C12.7229 3.83932 10.1607 1.27707 7 1.27707C3.83932 1.27707 1.27707 3.83932 1.27707 7Z" fill="#5C0002"/>
<path d="M7.00013 2.54546C6.64867 2.54546 6.36377 2.83036 6.36377 3.18182V7.29699C6.36377 7.29699 6.36377 7.46289 6.4444 7.58768C6.49836 7.69351 6.58249 7.78547 6.69302 7.84929L9.6329 9.54666C9.93727 9.72236 10.3265 9.61807 10.5022 9.31369C10.6779 9.00932 10.5736 8.62012 10.2693 8.44442L7.6365 6.9244V3.18182C7.6365 2.83037 7.3516 2.54546 7.00013 2.54546Z" fill="#5C0002"/>
</svg>
